<?xml version="1.0" encoding="utf-8"?>
<!-- Generator: Adobe Illustrator 21.0.0, SVG Export Plug-In . SVG Version: 6.00 Build 0)  -->
<svg version="1.1" id="organic-blob" xmlns="http://www.w3.org/2000/svg" xmlns:xlink="http://www.w3.org/1999/xlink" x="0px"
	 y="0px" viewBox="0 0 272.7 372" style="enable-background:new 0 0 272.7 372;" xml:space="preserve">
<style type="text/css">
	.st0{clip-path:url(#SVGID_2_);}
	.st1{fill:#FE3F2D;}
	.st2{fill:#FF8331;}
	.st3{fill:#FAA923;}
	.st4{fill:#00CEC4;}
	.st5{fill:#FF3100;}
	.st6{fill:#8E0016;}
	.st7{fill:#002A38;}
	.st8{fill:#008993;}
	.st9{fill:#FDD894;}
	.st10{fill:#FD7E4B;}
	.st11{fill:#DF5A4B;}
</style>
<g>
	<defs>
		<rect id="SVGID_1_" x="0.1" y="-0.8" width="272.7" height="372.8"/>
	</defs>
	<clipPath id="SVGID_2_">
		<use xlink:href="#SVGID_1_"  style="overflow:visible;"/>
	</clipPath>
	<g class="st0">
		<g>
			<polygon class="st1" points="163.3,323.2 163.3,387.3 163.2,387.3 108.6,419.4 108.6,291.1 163.2,323.1 			"/>
			<polygon class="st2" points="163.3,259 163.3,323.1 163.2,323.1 108.6,291.1 108.6,290.9 163.2,258.9 			"/>
			<polygon class="st3" points="163.3,323.1 163.3,323.2 163.2,323.1 			"/>
			<polygon class="st3" points="163.3,194.6 163.3,194.7 163.2,194.7 			"/>
			<polygon class="st3" points="163.3,258.8 163.3,259 163.2,258.9 			"/>
			<polygon class="st2" points="163.3,130.5 163.3,194.6 163.2,194.7 108.6,226.7 108.6,162.4 163.2,130.4 			"/>
			<polygon class="st3" points="218,226.7 218,226.8 218,226.8 			"/>
			<polygon class="st3" points="218,355.2 218,355.3 218,355.2 			"/>
			<polygon class="st4" points="272.7,387.3 218,419.4 218,419.5 163.3,387.4 163.3,387.3 218,355.2 218,355.3 			"/>
			<polygon class="st3" points="218,291 218,291 218,291 			"/>
			<polygon class="st3" points="108.6,355.1 108.6,355.3 108.4,355.2 			"/>
			<polygon class="st3" points="108.6,419.4 108.6,419.6 108.4,419.5 			"/>
			<polygon class="st3" points="218,34.1 218,34.1 218,34.1 			"/>
			<polygon class="st3" points="163.3,387.3 163.3,387.4 163.2,387.3 			"/>
			<polygon class="st3" points="218,226.8 163.3,258.8 163.2,258.9 108.6,290.9 108.6,226.7 163.2,194.7 163.3,194.7 			"/>
			<polygon class="st3" points="108.6,162.4 108.6,162.6 108.4,162.6 			"/>
			<polygon class="st3" points="163.3,451.5 163.3,451.6 163.2,451.6 			"/>
			<polygon class="st5" points="218,419.5 163.3,451.5 163.2,451.6 108.6,419.6 108.6,419.4 163.2,387.3 163.3,387.4 			"/>
			<polygon class="st3" points="163.2,130.4 108.6,162.4 108.6,98.4 			"/>
			<polygon class="st3" points="163.3,130.4 163.3,130.5 163.2,130.4 			"/>
			<g>
				<polygon class="st6" points="218,291 218,355.2 218,355.2 163.3,387.3 163.3,259 218,291 				"/>
			</g>
			<polygon class="st4" points="218,98.3 272.7,66.2 218,34.1 			"/>
			<polygon class="st5" points="272.7,194.7 272.7,258.9 218,291 218,291 163.3,259 163.3,258.8 218,226.8 218,226.8 218,226.7 			
				"/>
			<polygon class="st7" points="218,162.6 218,226.7 218,226.8 163.3,194.7 163.3,130.5 218,162.6 			"/>
			<polygon class="st8" points="272.7,130.4 272.7,194.7 218,226.7 218,162.5 			"/>
			<polygon class="st7" points="272.7,323.1 272.7,387.3 218,355.3 218,291 			"/>
			<polygon class="st4" points="272.7,258.9 272.7,323.1 218,291 218,291 			"/>
			<polygon class="st9" points="108.6,162.4 108.6,98.4 108.4,98.3 53.7,130.4 108.4,162.5 			"/>
			<polygon class="st3" points="218,162.5 218,162.6 218,162.6 			"/>
			<polygon class="st4" points="218,98.3 218,162.5 218,162.6 163.3,130.5 163.3,130.4 218,98.3 			"/>
			<polygon class="st3" points="218,98.4 218,98.3 218,98.3 			"/>
			<g>
				<polygon class="st10" points="108.4,291 108.6,291.1 108.6,290.9 				"/>
				<polygon class="st10" points="53.7,323.1 108.4,355.2 108.6,355.1 108.6,291.1 108.4,291 				"/>
			</g>
		</g>
		<polygon class="st2" points="46.3,178.6 46.3,205.7 69.8,192.1 		"/>
		<polygon class="st11" points="0.4,350.5 0.4,393.4 37.4,372 		"/>
		<polygon class="st3" points="52.9,92.5 52.9,113.5 70.6,103 		"/>
		<polygon class="st8" points="251.6,1.3 251.6,18.3 237,9.8 		"/>
	</g>
</g>
</svg>
