<?xml version="1.0" encoding="utf-8"?>
<!-- Generator: Adobe Illustrator 21.0.0, SVG Export Plug-In . SVG Version: 6.00 Build 0)  -->
<svg version="1.1" id="organic-blob" xmlns="http://www.w3.org/2000/svg" xmlns:xlink="http://www.w3.org/1999/xlink" x="0px"
	 y="0px" viewBox="0 0 300 300" style="enable-background:new 0 0 300 300;" xml:space="preserve">
<style type="text/css">
	.st0{fill:#FED894;}
	.st1{clip-path:url(#SVGID_2_);}
	.st2{fill:#002A36;}
	.st3{fill:#00CFC2;}
	.st4{fill:#FFAA2D;}
	.st5{fill:#FF8333;}
	.st6{fill:#FF6409;}
	.st7{fill:#FF2F00;}
	.st8{fill:#8C0116;}
	.st9{fill:#FAD69C;}
	.st10{fill:#002738;}
</style>
<polygon class="st0" points="0.3,0 0.3,0.3 0,0.1 "/>
<polygon class="st0" points="0.3,0 0.3,0.3 0,0.2 "/>
<polygon class="st0" points="0.2,0 0,0.1 0.2,0.3 "/>
<polygon class="st0" points="0.3,0 0.3,0.3 0,0.1 "/>
<polygon class="st0" points="0.3,0 0.3,0.3 0,0.2 "/>
<polygon class="st0" points="0.2,0 0,0.1 0.2,0.3 "/>
<g>
	<defs>
		<rect id="SVGID_1_" width="300" height="300"/>
	</defs>
	<clipPath id="SVGID_2_">
		<use xlink:href="#SVGID_1_"  style="overflow:visible;"/>
	</clipPath>
	<g class="st1">
		<polygon class="st2" points="80.9,127.6 80.9,223.2 80.7,223.3 -0.6,175.6 -0.6,79.8 80.7,127.6 		"/>
		<polygon class="st3" points="80.7,223.3 -0.6,271 -0.6,175.6 		"/>
		<polygon class="st0" points="98.5,146.2 98.5,146.1 98.4,146.2 		"/>
		<polygon class="st0" points="162.4,175.4 162.4,175.5 162.3,175.4 		"/>
		<polygon class="st4" points="162.4,175.5 162.4,271.1 162.3,271.1 80.9,223.4 80.9,223.2 162.3,175.4 		"/>
		<polygon class="st5" points="162.4,79.8 162.4,175.4 162.3,175.4 80.9,223.2 80.9,127.5 162.3,79.7 		"/>
		<polygon class="st6" points="162.3,-16 80.9,31.8 80.9,-63.8 		"/>
		<polygon class="st7" points="80.7,31.9 -0.6,79.6 -0.6,-15.9 		"/>
		<polygon class="st0" points="80.9,31.8 80.9,32 80.7,31.9 		"/>
		<polygon class="st0" points="80.9,223.2 80.9,223.4 80.7,223.3 		"/>
		<polygon class="st0" points="80.9,127.5 80.9,127.6 80.7,127.6 		"/>
		<polygon class="st0" points="162.4,271.1 243.9,223.3 162.4,175.5 		"/>
		<polygon class="st8" points="80.7,31.9 80.9,31.8 80.9,-63.8 80.7,-63.8 -0.7,-16.1 -0.7,-15.9 		"/>
		<polygon class="st0" points="162.4,-16 162.4,-15.9 162.3,-16 		"/>
		<polygon class="st4" points="243.9,31.9 162.4,79.7 162.3,79.7 80.9,127.5 80.7,127.6 -0.6,79.8 -0.6,79.6 80.7,31.9 80.9,32 
			80.9,31.8 162.3,-16 162.4,-15.9 		"/>
		<polygon class="st0" points="80.9,-63.9 80.7,-63.8 80.9,-63.8 		"/>
		<polygon class="st0" points="162.4,79.7 162.4,79.8 162.3,79.7 		"/>
		<polygon class="st0" points="266.5,-78.3 266.2,-78.2 266.5,-78 		"/>
		<polygon class="st9" points="268.2,16.1 268.2,47.4 294.6,31.8 		"/>
		<polygon class="st10" points="53.3,256.8 53.3,288.1 26.9,272.4 		"/>
	</g>
</g>
</svg>
